<?xml version="1.0" standalone="no"?>
<!DOCTYPE svg PUBLIC "-//W3C//DTD SVG 20010904//EN"
 "http://www.w3.org/TR/2001/REC-SVG-20010904/DTD/svg10.dtd">
<svg version="1.0" xmlns="http://www.w3.org/2000/svg"
 width="1920.000000pt" height="1080.000000pt" viewBox="0 0 1920.000000 1080.000000"
 preserveAspectRatio="xMidYMid meet">
<metadata>
Created by potrace 1.16, written by Peter Selinger 2001-2019
</metadata>
<g transform="translate(0.000000,1080.000000) scale(0.100000,-0.100000)"
fill="#000000" stroke="none">
<path d="M0 5400 l0 -5400 9600 0 9600 0 0 5400 0 5400 -9600 0 -9600 0 0
-5400z m7880 3546 c398 -75 695 -196 980 -399 116 -83 312 -281 387 -392 108
-160 183 -332 217 -499 20 -93 22 -246 4 -246 -99 -4 -2032 0 -2035 4 -7 7 -9
316 -5 995 l2 564 183 -6 c100 -3 220 -13 267 -21z m3985 -131 c372 -48 682
-157 960 -337 282 -182 515 -460 610 -729 68 -193 87 -363 61 -544 -44 -315
-194 -578 -471 -826 -516 -464 -1380 -630 -2135 -413 -470 136 -846 399 -1072
749 -64 101 -137 281 -165 407 -22 102 -21 356 1 461 62 290 244 569 511 787
288 235 710 404 1100 440 60 6 111 13 114 15 11 12 377 4 486 -10z m-4718
-125 l43 0 2 -712 3 -713 943 -3 942 -2 0 -74 c0 -338 -176 -695 -469 -952
-291 -256 -653 -417 -1099 -489 -148 -24 -595 -21 -757 5 -842 137 -1450 666
-1536 1335 -36 279 59 607 248 859 257 342 664 587 1158 696 163 36 399 63
460 53 11 -1 39 -3 62 -3z m-1523 -124 c65 -20 86 -41 86 -85 0 -68 -61 -135
-150 -164 -25 -8 -92 -20 -150 -27 -58 -6 -127 -16 -153 -21 -26 -5 -65 -9
-85 -9 -20 0 -71 -7 -112 -16 -41 -9 -142 -26 -225 -39 -151 -24 -530 -100
-640 -128 -198 -51 -258 -69 -332 -97 -45 -17 -94 -40 -108 -51 -52 -42 -147
-233 -277 -559 -45 -113 -101 -281 -95 -287 2 -1 36 6 77 16 154 37 379 80
640 123 47 8 182 13 365 13 254 0 296 -2 342 -18 86 -30 103 -49 103 -115 0
-45 -6 -66 -25 -95 -43 -62 -62 -67 -256 -67 -95 0 -198 -4 -228 -10 -31 -5
-108 -16 -171 -25 -149 -21 -194 -29 -380 -75 -203 -49 -596 -170 -626 -192
-7 -5 -21 -39 -32 -76 -12 -37 -62 -200 -112 -362 -132 -427 -129 -421 -169
-447 -49 -33 -173 -33 -222 0 -100 66 -103 207 -9 572 59 231 58 219 11 270
-46 49 -59 106 -42 172 14 50 73 107 158 152 76 41 71 31 214 416 163 438 322
822 391 943 38 67 117 149 162 167 41 17 102 19 177 5 42 -8 61 -18 87 -45 26
-28 40 -35 71 -35 46 0 261 33 391 60 52 11 122 25 155 31 33 5 119 21 190 35
131 26 174 33 365 54 58 6 137 15 175 19 125 15 387 12 439 -3z m9081 -5 c613
-36 1105 -216 1410 -515 253 -248 324 -541 203 -841 -175 -438 -567 -752
-1218 -980 -115 -40 -429 -131 -488 -141 -20 -3 -59 -12 -87 -20 -27 -7 -131
-29 -230 -49 -99 -19 -220 -44 -270 -54 -235 -51 -460 -71 -781 -71 -247 0
-278 2 -339 21 -81 25 -115 55 -115 101 0 70 76 142 200 190 90 35 145 46 288
57 68 5 125 11 126 12 4 5 636 1904 636 1911 0 3 -53 8 -117 11 -161 8 -207
23 -272 91 -56 60 -73 93 -73 146 0 62 87 109 252 135 98 16 573 14 875 -4z
m1247 -2830 c51 -17 95 -38 125 -59 7 -4 25 -42 39 -83 116 -327 174 -506 174
-533 0 -41 -56 -136 -118 -199 -26 -27 -82 -69 -124 -94 l-78 -45 6 -41 c3
-23 14 -82 25 -132 10 -49 30 -151 44 -225 14 -74 35 -175 45 -225 11 -49 27
-128 35 -175 9 -47 27 -138 41 -204 13 -65 24 -120 24 -122 0 -2 23 -4 51 -4
58 0 134 -20 199 -53 43 -22 47 -28 91 -138 25 -63 79 -195 119 -294 l72 -179
-16 -52 c-19 -60 -82 -150 -148 -210 -70 -64 -180 -114 -271 -123 -102 -9
-203 1 -270 28 l-55 22 -49 -25 c-61 -31 -80 -51 -64 -70 6 -7 60 -32 119 -56
118 -46 158 -76 148 -108 -4 -11 -14 -24 -24 -28 -9 -4 -96 -11 -192 -16 -199
-8 -281 -16 -293 -28 -5 -4 56 -39 135 -77 78 -38 149 -77 156 -86 7 -8 12
-31 10 -49 -4 -43 -35 -53 -189 -62 -203 -11 -278 -31 -384 -101 -63 -42 -101
-89 -140 -171 -18 -39 -31 -54 -46 -54 -35 0 -34 30 5 106 92 179 263 266 553
283 67 4 125 10 129 14 4 3 -56 36 -132 72 -144 68 -184 96 -184 126 0 53 95
78 307 80 70 1 141 4 157 8 26 5 22 9 -54 40 -158 64 -187 120 -105 196 l45
41 -41 39 c-22 22 -49 55 -60 72 -36 57 -80 213 -88 308 -8 86 -21 160 -77
430 -14 66 -34 168 -45 226 -11 58 -26 137 -34 175 -9 38 -24 116 -36 174 -11
58 -29 146 -39 195 -11 50 -45 218 -75 375 -31 157 -67 339 -81 406 -28 142
-31 266 -8 345 50 169 179 302 349 360 73 25 244 25 317 0z m-3776 -280 c45
-25 74 -66 74 -103 0 -13 -101 -327 -225 -698 -234 -701 -242 -732 -275 -1000
-6 -52 -15 -125 -21 -162 -5 -37 -9 -107 -9 -156 0 -157 -50 -270 -128 -292
-48 -13 -157 -13 -205 1 -46 12 -65 40 -73 105 -10 90 -12 96 -37 88 -12 -3
-83 -34 -157 -69 -173 -80 -240 -106 -375 -146 -98 -28 -128 -32 -268 -37
-178 -5 -236 5 -340 61 -79 41 -133 96 -168 170 -26 55 -29 73 -29 159 0 83 4
109 30 179 92 252 273 458 545 621 252 151 573 258 775 258 36 0 101 -7 144
-15 44 -9 83 -12 87 -8 15 17 182 482 261 726 88 273 103 301 173 334 47 21
171 12 221 -16z m1089 -356 c22 -14 56 -32 75 -41 57 -26 70 -43 70 -90 0
-101 -55 -161 -192 -209 -54 -19 -146 -30 -189 -21 -41 7 -116 75 -125 112 -7
28 24 117 58 166 35 51 153 106 228 107 20 0 52 -10 75 -24z m-6954 -568 c19
-12 38 -35 43 -50 10 -28 10 -28 -53 -147 -17 -30 -29 -56 -27 -57 2 -2 81 37
178 86 299 152 488 198 710 172 110 -13 183 -46 241 -111 105 -116 103 -270
-7 -537 -25 -60 -64 -143 -248 -523 -47 -96 -100 -211 -119 -255 -59 -137
-113 -175 -252 -175 -71 0 -120 17 -131 45 -3 9 -6 42 -6 74 0 86 44 203 166
438 201 388 245 478 264 542 37 117 21 206 -42 232 -17 7 -62 10 -116 7 -73
-4 -104 -11 -192 -47 -116 -46 -245 -116 -422 -227 -64 -40 -144 -87 -177
-103 -53 -27 -65 -39 -101 -102 -84 -144 -183 -393 -209 -529 -7 -35 -24 -99
-37 -142 -34 -105 -66 -131 -172 -137 -201 -10 -235 69 -148 339 86 264 139
393 262 635 133 263 266 518 281 543 24 38 69 51 179 52 89 0 105 -3 135 -23z
m-1681 3 c112 -14 200 -61 287 -154 214 -224 228 -472 46 -780 -64 -108 -310
-356 -435 -440 -255 -169 -439 -233 -704 -243 -581 -24 -836 291 -619 764 54
116 122 209 245 334 96 96 294 259 316 259 3 0 18 8 32 19 15 10 79 46 142 79
108 57 208 92 310 108 24 3 61 15 81 26 69 36 166 45 299 28z m10539 -95 c56
-33 76 -68 75 -133 0 -37 -8 -71 -21 -97 -11 -22 -86 -238 -166 -480 -113
-342 -146 -456 -150 -510 -6 -75 -36 -168 -67 -208 -33 -42 -79 -57 -174 -57
-103 0 -152 17 -162 55 -3 14 -3 56 0 93 4 37 9 100 12 141 l6 74 -53 -30
c-30 -16 -95 -55 -144 -85 -110 -67 -237 -129 -325 -158 -56 -19 -82 -21 -185
-18 -110 3 -125 6 -180 33 -35 18 -89 59 -131 100 -61 60 -73 77 -84 124 -31
132 30 332 168 546 85 133 285 333 427 427 157 105 285 165 395 187 83 17 136
19 410 18 295 -2 317 -3 349 -22z m-2111 -69 c18 -9 38 -29 45 -43 13 -29 0
-71 -180 -573 -152 -425 -200 -560 -243 -690 -32 -93 -46 -121 -74 -147 -31
-28 -43 -33 -87 -33 -77 0 -129 19 -176 66 -60 60 -61 85 -14 229 36 111 63
189 236 666 35 97 87 242 115 324 27 81 55 154 61 161 6 7 34 25 62 39 47 24
61 26 137 23 55 -3 97 -11 118 -22z"/>
<path d="M7500 8886 c0 -23 3 -24 88 -30 407 -27 746 -128 1039 -309 50 -31
95 -57 100 -57 6 0 17 8 26 18 15 17 12 20 -47 59 -286 187 -713 317 -1103
338 l-103 5 0 -24z"/>
<path d="M7500 8160 c0 -357 3 -650 8 -650 7 1 60 43 497 395 136 110 271 218
300 240 110 85 342 275 359 294 18 20 17 21 -45 61 -96 62 -291 155 -407 194
-210 71 -454 116 -624 116 l-88 0 0 -650z m453 539 c31 -16 57 -50 57 -77 0
-13 -13 -37 -29 -53 -25 -25 -37 -29 -84 -29 -47 0 -60 4 -86 29 -40 37 -39
65 3 107 28 28 42 34 76 34 23 0 51 -5 63 -11z m-194 -264 c53 -45 50 -90 -9
-120 -75 -39 -173 12 -156 81 8 31 61 64 103 64 19 0 43 -10 62 -25z m436 10
c64 -31 65 -93 3 -130 -39 -22 -101 -15 -134 16 -38 36 -28 85 24 113 35 20
66 20 107 1z m-420 -460 c14 -13 25 -33 25 -45 0 -11 -11 -32 -25 -45 -20 -21
-34 -25 -80 -25 -46 0 -60 4 -80 25 -14 13 -25 34 -25 45 0 12 11 32 25 45 20
21 34 25 80 25 46 0 60 -4 80 -25z"/>
<path d="M8787 8472 c-16 -18 -14 -21 46 -69 148 -121 284 -286 365 -446 76
-147 131 -331 132 -434 l0 -43 40 0 c38 0 40 1 40 33 0 64 -29 204 -60 292
-40 113 -105 236 -181 340 -79 109 -321 345 -354 345 -7 0 -19 -8 -28 -18z"/>
<path d="M8619 8342 c-52 -43 -140 -113 -194 -157 -53 -44 -110 -89 -124 -100
-15 -11 -60 -47 -101 -80 -41 -32 -154 -122 -250 -199 -96 -76 -191 -153 -211
-170 -20 -17 -68 -56 -107 -86 -40 -30 -72 -58 -72 -62 0 -5 390 -8 866 -8
l866 0 -6 58 c-28 231 -134 465 -300 656 -67 77 -236 226 -256 225 -8 0 -58
-35 -111 -77z m222 -65 c75 -51 36 -127 -65 -127 -54 1 -75 11 -95 48 -17 31
-5 60 32 83 42 25 87 24 128 -4z m-423 -303 c56 -39 44 -101 -25 -130 -41 -18
-82 -8 -120 28 -31 29 -29 54 6 89 24 23 38 29 73 29 24 0 54 -7 66 -16z m431
-220 c64 -54 21 -124 -76 -124 -41 0 -76 19 -93 51 -8 15 -7 26 6 48 34 57
111 69 163 25z m-664 -58 c19 -8 41 -28 50 -46 15 -29 15 -33 0 -56 -29 -44
-100 -57 -155 -29 -56 29 -49 103 13 130 41 18 50 18 92 1z"/>
<path d="M10540 8344 c0 -3 39 -55 87 -115 48 -60 94 -120 102 -134 18 -29 5
-48 -15 -21 -7 11 -24 31 -36 45 -13 14 -38 46 -57 69 -34 44 -54 68 -102 125
-23 27 -49 31 -49 7 0 -5 50 -70 110 -144 61 -75 110 -138 110 -141 0 -3 -7
-5 -15 -5 -8 0 -31 22 -52 48 -185 236 -197 248 -221 219 -8 -10 7 -34 60 -97
103 -125 168 -207 168 -214 0 -3 -6 -6 -14 -6 -8 0 -67 65 -131 145 -95 118
-120 143 -131 134 -24 -20 -16 -73 19 -122 17 -26 94 -122 169 -215 149 -184
172 -202 257 -202 l50 0 67 -80 c36 -44 143 -176 237 -293 95 -117 198 -245
231 -285 41 -51 56 -76 49 -85 -67 -85 -394 -504 -448 -572 -39 -49 -92 -117
-118 -150 l-47 -60 22 -17 c39 -29 64 -28 96 6 16 17 85 103 153 190 175 224
350 448 376 480 36 45 58 33 153 -85 89 -110 170 -210 378 -466 72 -89 130
-153 140 -153 9 0 36 9 60 20 32 14 41 23 35 34 -8 14 -328 412 -515 640 -59
72 -111 141 -114 154 -6 23 -9 19 167 243 36 46 133 170 215 275 82 105 220
282 307 393 87 111 165 218 173 236 26 64 9 155 -29 155 -7 0 -60 -60 -117
-132 -57 -73 -134 -171 -171 -218 -408 -517 -424 -537 -409 -555 10 -12 0 -29
-52 -94 -34 -44 -83 -104 -107 -135 -24 -31 -52 -56 -61 -56 -9 0 -72 69 -147
163 -72 89 -164 203 -204 252 -163 201 -199 247 -199 254 0 5 7 22 16 40 9 18
13 42 10 59 -4 15 -70 106 -147 202 -161 200 -193 236 -231 256 -27 14 -78 19
-78 8z"/>
<path d="M6925 8600 c-93 -7 -131 -13 -260 -39 -353 -73 -703 -242 -925 -447
l-62 -58 22 -18 c12 -10 26 -18 30 -18 4 0 48 34 96 76 285 244 655 397 1069
444 55 6 125 12 155 13 51 2 55 4 55 27 0 22 -4 25 -40 26 -22 1 -85 -2 -140
-6z"/>
<path d="M6890 8495 c-301 -32 -643 -151 -870 -304 -84 -57 -230 -178 -230
-191 0 -8 66 -51 165 -105 86 -47 428 -237 465 -258 111 -63 207 -116 300
-167 58 -32 166 -92 240 -133 93 -51 137 -71 142 -64 9 13 10 1180 1 1215 -6
26 -27 27 -213 7z m-546 -330 c59 -54 13 -125 -81 -125 -56 0 -83 23 -83 70 0
30 6 43 26 59 38 30 103 28 138 -4z m469 14 c25 -11 47 -47 47 -75 0 -31 -47
-64 -90 -64 -97 0 -144 70 -84 125 30 28 85 33 127 14z m-335 -292 c53 -49 9
-127 -72 -127 -50 0 -106 37 -106 70 0 25 46 78 73 83 36 7 80 -4 105 -26z
m456 -128 c40 -31 37 -83 -6 -109 -45 -27 -100 -26 -132 3 -40 36 -42 63 -7
97 37 38 103 42 145 9z"/>
<path d="M5581 7948 c-146 -175 -237 -376 -272 -604 -15 -103 -11 -116 38
-112 l38 3 6 75 c16 210 111 426 273 624 38 46 39 49 21 62 -32 24 -49 16
-104 -48z"/>
<path d="M5692 7901 c-67 -80 -135 -192 -179 -292 -35 -81 -83 -280 -83 -346
l0 -33 808 0 c802 0 807 1 782 20 -14 11 -52 34 -85 51 -33 17 -80 44 -105 59
-25 15 -126 71 -225 125 -99 54 -242 133 -317 177 -76 43 -141 78 -144 78 -3
0 -47 24 -97 53 -129 75 -294 167 -301 167 -3 0 -27 -26 -54 -59z m172 -62
c35 -27 37 -90 4 -113 -58 -41 -168 -6 -168 53 0 70 103 108 164 60z m357
-206 c107 -63 1 -186 -111 -128 -54 28 -53 101 2 128 42 21 73 21 109 0z
m-484 -235 c32 -36 35 -46 22 -70 -20 -37 -41 -47 -101 -48 -51 0 -59 3 -82
31 -33 39 -32 44 3 80 25 25 37 29 83 29 44 0 59 -4 75 -22z m848 -3 c14 -13
25 -33 25 -45 0 -11 -11 -32 -25 -45 -32 -33 -120 -36 -153 -5 -31 29 -29 73
4 99 39 31 117 29 149 -4z"/>
<path d="M5468 7183 c-44 -5 -44 -6 -28 -130 20 -145 83 -305 178 -447 54 -82
178 -216 199 -216 8 0 69 35 136 78 67 44 255 163 417 267 162 103 336 214
385 246 50 32 139 88 198 126 l108 68 -58 6 c-61 7 -1472 8 -1535 2z m901
-159 c64 -54 24 -124 -71 -124 -39 0 -54 5 -73 25 -33 32 -31 60 4 96 39 39
96 40 140 3z m-647 -66 c27 -13 47 -59 37 -85 -20 -54 -116 -74 -167 -36 -90
67 26 175 130 121z m351 -16 c23 -20 22 -74 -2 -96 -63 -57 -181 -25 -181 49
0 32 21 54 64 69 43 15 85 7 119 -22z m-119 -253 c20 -16 26 -29 26 -59 0 -45
-24 -67 -81 -76 -48 -8 -103 30 -107 72 -7 68 102 111 162 63z"/>
<path d="M5300 7153 c1 -101 51 -295 106 -413 48 -102 148 -250 229 -337 67
-73 87 -84 118 -60 15 11 10 19 -47 84 -114 128 -182 235 -244 384 -37 90 -72
232 -72 294 0 65 -7 75 -51 75 -36 0 -39 -2 -39 -27z"/>
<path d="M7271 7166 c6 -5 283 -160 519 -291 239 -133 255 -142 305 -170 22
-12 67 -37 100 -55 33 -18 124 -68 203 -111 78 -44 146 -79 150 -79 11 0 118
138 156 202 76 126 137 307 150 446 l6 62 -797 0 c-438 0 -794 -2 -792 -4z
m748 -67 c15 -15 21 -30 19 -51 -4 -44 -43 -70 -102 -70 -83 0 -124 66 -74
119 30 32 123 33 157 2z m374 -20 c67 -18 83 -74 34 -119 -32 -31 -120 -28
-152 5 -14 13 -25 35 -25 48 0 28 35 64 70 70 14 2 27 5 30 6 3 0 22 -4 43
-10z m14 -279 c60 -36 66 -81 16 -120 -38 -30 -103 -27 -142 6 -48 40 -38 86
25 119 39 20 63 19 101 -5z"/>
<path d="M8906 7158 c-3 -7 -7 -41 -10 -75 -16 -179 -104 -387 -236 -560 l-70
-93 32 -16 32 -17 39 44 c57 65 121 157 161 231 70 126 135 344 136 451 l0 47
-40 0 c-24 0 -42 -5 -44 -12z"/>
<path d="M6994 7083 c-65 -42 -186 -120 -269 -173 -150 -97 -273 -175 -648
-413 -111 -71 -206 -132 -211 -138 -32 -30 222 -200 437 -293 214 -92 451
-147 700 -162 l117 -7 0 632 c0 347 -2 631 -3 631 -2 0 -57 -34 -123 -77z
m-60 -398 c70 -65 -10 -158 -109 -125 -38 12 -65 43 -65 73 0 10 13 32 29 48
39 39 105 41 145 4z m-217 -245 c33 -20 50 -57 39 -85 -3 -8 -20 -24 -38 -35
-47 -30 -104 -21 -140 20 -16 16 -28 35 -28 41 0 6 15 26 34 45 40 40 83 45
133 14z m-370 -92 c54 -50 10 -118 -76 -118 -64 0 -91 21 -91 70 0 54 20 70
88 70 43 0 61 -5 79 -22z m488 -153 c14 -13 25 -36 25 -50 0 -14 -11 -37 -25
-50 -19 -20 -34 -25 -75 -25 -92 0 -132 72 -69 124 42 36 110 36 144 1z"/>
<path d="M7170 6529 l0 -632 103 7 c337 23 615 98 862 234 128 71 315 207 364
266 17 20 11 23 -439 271 -52 29 -147 82 -210 117 -63 36 -144 81 -180 100
-36 19 -135 75 -220 123 -180 102 -261 145 -272 145 -5 0 -8 -284 -8 -631z
m292 414 c48 -43 -3 -128 -76 -126 -81 2 -127 60 -89 111 38 51 117 58 165 15z
m97 -259 c53 -44 38 -97 -34 -124 -63 -24 -135 14 -135 71 0 73 106 107 169
53z m450 -250 c38 -32 41 -71 7 -103 -32 -30 -85 -37 -124 -17 -62 32 -66 91
-9 126 45 28 89 25 126 -6z m-449 -160 c24 -21 30 -33 28 -57 -10 -98 -198
-93 -198 5 0 73 106 105 170 52z"/>
<path d="M8519 6364 c-44 -48 -183 -154 -274 -211 -187 -117 -411 -203 -657
-253 -118 -24 -324 -49 -400 -50 -12 0 -18 -8 -18 -21 0 -22 1 -22 143 -15
299 15 632 107 887 243 130 70 272 168 347 239 65 61 67 64 49 79 -28 22 -49
19 -77 -11z"/>
<path d="M5778 6306 c-10 -7 -18 -16 -18 -19 0 -10 157 -126 238 -176 278
-169 642 -279 990 -297 130 -7 132 -7 132 14 0 26 -12 29 -150 36 -58 2 -126
9 -150 15 -25 5 -88 17 -140 27 -284 51 -612 200 -821 375 -52 43 -56 44 -81
25z"/>
<path d="M14602 8188 c-31 -51 -140 -284 -204 -438 -83 -201 -223 -597 -353
-1005 -35 -110 -80 -249 -99 -309 -20 -59 -36 -110 -36 -112 0 -19 213 20 502
91 425 104 846 277 1133 466 155 102 307 256 361 364 36 73 39 86 42 179 3 84
0 111 -17 157 -59 157 -220 311 -446 427 -237 122 -570 212 -780 212 -83 0
-83 0 -103 -32z"/>
<path d="M11265 4160 c-355 -40 -786 -304 -906 -554 -81 -170 -59 -295 62
-357 30 -15 59 -19 138 -19 118 0 204 26 392 120 279 138 354 218 428 460 69
222 88 322 65 340 -17 15 -98 19 -179 10z"/>
<path d="M4530 4234 c-29 -34 -180 -74 -283 -74 -72 0 -189 -48 -307 -126
-171 -112 -323 -272 -397 -418 -32 -61 -37 -83 -41 -158 -4 -74 -1 -93 17
-132 23 -47 67 -86 129 -114 29 -13 68 -17 182 -17 159 1 216 13 345 78 145
72 315 229 404 372 98 157 144 340 105 418 -28 57 -119 186 -130 187 -6 0 -17
-7 -24 -16z"/>
<path d="M14600 4218 c-229 -65 -378 -149 -542 -306 -54 -52 -120 -124 -147
-161 -131 -176 -188 -394 -120 -462 24 -24 107 -26 187 -3 244 69 671 414 774
627 54 109 76 268 42 301 -18 18 -135 21 -194 4z"/>
</g>
</svg>
